HIERARCHY
ROOT Hips
{
	OFFSET 0.00 0.00 0.00
	CHANNELS 6 Xposition Yposition Zposition Xrotation Yrotation Zrotation
	JOINT Spine
	{
		OFFSET 0.00000 2.10617 3.15926
		CHANNELS 3 Xrotation Yrotation Zrotation
		JOINT Spine1
		{
			OFFSET 0.00000 0.73147 4.14835
			CHANNELS 3 Xrotation Yrotation Zrotation
			JOINT Spine2
			{
				OFFSET 0.00000 0.36713 4.19631
				CHANNELS 3 Xrotation Yrotation Zrotation
				JOINT Spine3
				{
					OFFSET 0.00000 0.00000 4.21234
					CHANNELS 3 Xrotation Yrotation Zrotation
					JOINT Neck
					{
						OFFSET 0.00000 -1.57962 11.05740
						CHANNELS 3 Xrotation Yrotation Zrotation
						JOINT Head
						{
							OFFSET 0.00000 -1.00576 5.70398
							CHANNELS 3 Xrotation Yrotation Zrotation
							End Site
							{
								OFFSET 0.00000 0.00001 6.81873
							}
						}
					}
					JOINT RightShoulder
					{
						OFFSET -1.28113 -2.13521 6.91810
						CHANNELS 3 Xrotation Yrotation Zrotation
						JOINT RightArm
						{
							OFFSET -6.36294 0.00000 0.00000
							CHANNELS 3 Xrotation Yrotation Zrotation
							JOINT RightForeArm
							{
								OFFSET -10.12221 0.00000 0.00000
								CHANNELS 3 Xrotation Yrotation Zrotation
								JOINT RightHand
								{
									OFFSET -10.76713 0.00000 0.00000
									CHANNELS 3 Xrotation Yrotation Zrotation
									JOINT RightHandEnd
									{
										OFFSET -2.78915 0.00000 0.00000
										CHANNELS 3 Xrotation Yrotation Zrotation
										End Site
										{
											OFFSET -2.78915 0.00000 0.00000
										}
									}
									JOINT RightHandThumb1
									{
										OFFSET -1.11566 -1.85944 -0.74377
										CHANNELS 3 Yrotation Xrotation Zrotation
										End Site
										{
											OFFSET -2.69412 -0.72189 0.00000
										}
									}
								}
							}
						}
					}
					JOINT LeftShoulder
					{
						OFFSET 1.28113 -2.13521 6.91810
						CHANNELS 3 Xrotation Yrotation Zrotation
						JOINT LeftArm
						{
							OFFSET 6.36294 0.00000 0.00000
							CHANNELS 3 Xrotation Yrotation Zrotation
							JOINT LeftForeArm
							{
								OFFSET 10.12221 0.00000 0.00000
								CHANNELS 3 Xrotation Yrotation Zrotation
								JOINT LeftHand
								{
									OFFSET 10.76713 0.00000 0.00000
									CHANNELS 3 Xrotation Yrotation Zrotation
									JOINT LeftHandEnd
									{
										OFFSET 2.78915 0.00000 0.00000
										CHANNELS 3 Xrotation Yrotation Zrotation
										End Site
										{
											OFFSET 2.78915 0.00000 0.00000
										}
									}
									JOINT LeftHandThumb1
									{
										OFFSET 1.11566 -1.85944 -0.74377
										CHANNELS 3 Yrotation Xrotation Zrotation
										End Site
										{
											OFFSET 2.69412 -0.72189 0.00000
										}
									}
								}
							}
						}
					}
				}
			}
		}
	}
	JOINT RightUpLeg
	{
		OFFSET -3.80068 0.00000 -1.11031
		CHANNELS 3 Xrotation Yrotation Zrotation
		JOINT RightLeg
		{
			OFFSET 0.00001 0.00000 -17.00167
			CHANNELS 3 Xrotation Yrotation Zrotation
			JOINT RightFoot
			{
				OFFSET 0.00001 0.00000 -17.96841
				CHANNELS 3 Xrotation Yrotation Zrotation
				JOINT RightToeBase
				{
					OFFSET 0.00000 -5.07501 -1.84715
					CHANNELS 3 Xrotation Yrotation Zrotation
					End Site
					{
						OFFSET 0.00000 -3.07471 -0.00000
					}
				}
			}
		}
	}
	JOINT LeftUpLeg
	{
		OFFSET 3.80068 0.00000 -1.11031
		CHANNELS 3 Xrotation Yrotation Zrotation
		JOINT LeftLeg
		{
			OFFSET 0.00001 0.00000 -17.00167
			CHANNELS 3 Xrotation Yrotation Zrotation
			JOINT LeftFoot
			{
				OFFSET 0.00001 0.00000 -17.96841
				CHANNELS 3 Xrotation Yrotation Zrotation
				JOINT LeftToeBase
				{
					OFFSET 0.00000 -5.07501 -1.84715
					CHANNELS 3 Xrotation Yrotation Zrotation
					End Site
					{
						OFFSET 0.00000 -3.07471 -0.00000
					}
				}
			}
		}
	}
}
MOTION
Frames: 7
Frame Time: 0.008342
 7.0282 -103.8995 37.0698 -0.9984 -2.5651 178.0892 2.0953 -3.7348 0.9768 0.8521 -0.6877 0.0778 2.9262 -1.3251 1.8245 0.9859 -1.0689 1.2146 -6.3605 -0.0563 3.6864 -3.8669 2.5516 4.1868 9.7257 -5.6023 9.5914 38.7790 -51.1156 38.5943 0.0000 0.0000 27.5753 -3.2226 3.7821 0.0253 0.0000 -0.0000 -0.0000 -0.0000 -0.0000 0.0000 12.1399 11.0071 -9.6873 39.0887 56.8738 -37.7975 -0.0000 -0.0000 -22.7945 -14.6319 -15.8552 -0.1743 -0.0000 -0.0000 0.0000 0.0000 -0.0000 0.0000 -5.5173 -0.8103 -8.9964 20.5181 0.0000 0.0000 -15.8022 3.5754 -7.9074 -2.6729 0.0000 -0.0000 -22.4753 -8.0061 4.9297 15.3584 0.0000 0.0000 -3.4885 9.9510 5.4589 -9.5884 0.0000 -0.0000
 6.9745 -103.7418 37.0482 -1.0692 -2.6963 177.9610 2.0916 -3.8012 0.9916 0.8530 -0.7123 0.0889 2.9466 -1.3182 1.9413 0.9867 -1.0761 1.2457 -6.4809 0.0257 3.6683 -3.7671 2.5162 4.0670 9.7675 -5.5633 9.6634 39.1399 -51.0735 38.9061 0.0000 0.0000 27.3109 -3.1743 3.7001 -0.0279 -0.0000 0.0000 -0.0000 -0.0000 -0.0000 -0.0000 12.1593 11.0307 -9.5813 39.2777 56.8446 -37.8383 -0.0000 -0.0000 -22.5198 -14.5587 -15.9979 -0.2511 -0.0000 -0.0000 0.0000 -0.0000 -0.0000 0.0000 -5.2845 -0.8297 -9.1016 20.4253 0.0000 0.0000 -15.9675 3.4933 -7.7109 -2.5823 0.0000 -0.0000 -22.7020 -8.1429 4.9524 15.6226 0.0000 0.0000 -3.6421 9.1784 6.0238 -9.8512 0.0000 -0.0000
 6.9198 -103.5778 37.0269 -1.1169 -2.8343 177.8327 2.1089 -3.8563 1.0020 0.8468 -0.7647 0.0869 2.9693 -1.2904 2.0770 0.9875 -1.0813 1.2674 -6.5935 0.1010 3.6520 -3.6694 2.4752 3.9534 9.8115 -5.5274 9.7334 39.5191 -51.0310 39.2340 0.0000 0.0000 27.0391 -3.1123 3.6193 -0.0859 0.0000 0.0000 0.0000 0.0000 0.0000 0.0000 12.1734 11.0536 -9.4764 39.4201 56.8557 -37.8091 -0.0000 -0.0000 -22.2409 -14.5271 -16.0849 -0.2876 -0.0000 -0.0000 0.0000 -0.0000 0.0000 -0.0000 -4.9989 -0.8538 -9.2169 20.2982 0.0000 0.0000 -16.1332 3.4105 -7.5077 -2.5121 0.0000 -0.0000 -22.9144 -8.2852 4.9519 16.0191 0.0000 0.0000 -3.7938 8.4547 6.6378 -10.0753 0.0000 -0.0000
 6.8628 -103.4094 37.0052 -1.1744 -2.9644 177.6992 2.1085 -3.9110 1.0107 0.8446 -0.7919 0.0951 2.9885 -1.2740 2.1957 0.9896 -1.0868 1.2923 -6.7011 0.1756 3.6380 -3.5708 2.4277 3.8481 9.8539 -5.4922 9.7979 39.9237 -50.9805 39.5852 0.0000 0.0000 26.7553 -3.0426 3.5465 -0.1406 0.0000 0.0000 -0.0000 -0.0000 -0.0000 0.0000 12.1945 11.0821 -9.3674 39.5176 56.8938 -37.7328 -0.0000 -0.0000 -21.9469 -14.5606 -16.1196 -0.2919 -0.0000 0.0000 -0.0000 -0.0000 0.0000 0.0000 -4.7109 -0.8647 -9.3360 20.1617 0.0000 0.0000 -16.3117 3.3174 -7.2928 -2.4606 0.0000 -0.0000 -23.1463 -8.4162 4.9258 16.5400 0.0000 0.0000 -3.9419 7.8160 7.2899 -10.2168 0.0000 -0.0000
 6.8044 -103.2351 36.9835 -1.2236 -3.0967 177.5714 2.1133 -3.9580 1.0169 0.8340 -0.8336 0.0969 3.0117 -1.2419 2.3149 0.9909 -1.0907 1.3120 -6.7995 0.2423 3.6215 -3.4795 2.3746 3.7518 9.8920 -5.4639 9.8584 40.3432 -50.9346 39.9432 0.0000 0.0000 26.4670 -2.9581 3.4750 -0.1932 0.0000 0.0000 -0.0000 0.0000 0.0000 -0.0000 12.2144 11.1098 -9.2624 39.5554 56.9730 -37.5770 -0.0000 -0.0000 -21.6527 -14.6561 -16.0971 -0.2537 0.0000 -0.0000 -0.0000 0.0000 -0.0000 0.0000 -4.3902 -0.8765 -9.4565 19.9984 0.0000 0.0000 -16.4957 3.2076 -7.0733 -2.4220 0.0000 -0.0000 -23.3809 -8.5433 4.8701 17.1822 0.0000 0.0000 -4.1035 7.2960 7.9499 -10.2352 0.0000 -0.0000
 6.7437 -103.0551 36.9618 -1.2702 -3.2224 177.4516 2.1100 -4.0007 1.0202 0.8266 -0.8638 0.1014 3.0328 -1.2116 2.4216 0.9932 -1.0922 1.3286 -6.8906 0.3035 3.6028 -3.3950 2.3158 3.6631 9.9274 -5.4411 9.9092 40.7826 -50.8852 40.3184 0.0000 0.0000 26.1710 -2.8684 3.4094 -0.2382 0.0000 0.0000 -0.0000 -0.0000 -0.0000 0.0000 12.2379 11.1370 -9.1562 39.5486 57.0812 -37.3709 -0.0000 -0.0000 -21.3462 -14.8244 -16.0266 -0.1886 0.0000 0.0000 0.0000 0.0000 0.0000 0.0000 -4.0465 -0.8781 -9.5801 19.8146 0.0000 0.0000 -16.6873 3.0747 -6.8441 -2.3922 0.0000 -0.0000 -23.6209 -8.6538 4.7834 17.9290 0.0000 0.0000 -4.2930 6.9166 8.6030 -10.0932 0.0000 -0.0000
 6.6809 -102.8688 36.9403 -1.3118 -3.3413 177.3472 2.1008 -4.0367 1.0200 0.8193 -0.8903 0.1055 3.0542 -1.1762 2.5154 0.9963 -1.0914 1.3411 -6.9727 0.3573 3.5784 -3.3203 2.2514 3.5814 9.9603 -5.4256 9.9506 41.2341 -50.8389 40.7015 0.0000 0.0000 25.8713 -2.7735 3.3480 -0.2759 0.0000 -0.0000 0.0000 0.0000 -0.0000 -0.0000 12.2680 11.1594 -9.0526 39.4978 57.2164 -37.1172 -0.0000 -0.0000 -21.0294 -15.0603 -15.9143 -0.0941 0.0000 0.0000 0.0000 -0.0000 0.0000 0.0000 -3.6752 -0.8699 -9.7100 19.6076 0.0000 0.0000 -16.8817 2.9174 -6.6068 -2.3647 0.0000 -0.0000 -23.8628 -8.7434 4.6626 18.7653 0.0000 0.0000 -4.5297 6.6906 9.2310 -9.7644 0.0000 -0.0000
